<?xml version="1.0" encoding="iso-8859-1" ?>
<svg width="159" height="35" viewBox="0 0 159 35" fill="none" xmlns="http://www.w3.org/2000/svg">
<path d="M56.5819 0H56.1973V35H56.5819V0Z" fill="#1D1A15"/>
<path fill-rule="evenodd" clip-rule="evenodd" d="M33.974 9.2729V17.3926C34.3587 17.3926 34.6578 17.478 34.8287 17.478C34.9997 17.478 35.2134 17.3926 35.2988 17.3926C35.7689 17.3926 36.2817 17.2216 36.4527 17.0079C36.6236 16.837 36.9228 16.4097 36.9228 16.025C37.0082 15.6404 37.0937 14.9567 37.0937 14.1874V12.2644C37.0937 10.3413 36.239 9.2729 34.4869 9.2729H33.974ZM24.4014 3.46094H36.5809C38.1193 3.46094 39.5723 3.54641 40.6407 3.76008C41.7091 3.93102 42.692 4.52931 43.4612 5.21307C44.4441 6.06777 45.1279 7.22162 45.3843 8.37547C45.6834 9.52931 45.8971 11.0678 45.8971 12.7344V15.2558C45.8116 16.5806 45.5125 17.8626 45.2134 18.8456C44.9142 19.8285 44.3587 20.7686 43.6749 21.3669C42.3074 22.5208 40.2134 23.2045 37.3074 23.2045H34.0168C34.0168 23.4182 33.9313 23.6746 33.9313 23.8028C33.9313 24.4866 34.1022 25.0421 34.1022 25.3413C34.1877 25.7259 34.4869 26.1105 34.8715 26.3242V31.1532H24.4014V26.2814C24.7005 26.1105 24.9997 25.7259 25.0852 25.4267C25.1706 25.1276 25.2561 24.6575 25.2561 24.0592V10.8968C25.2561 10.3413 25.1706 9.74299 25.1706 9.35837C25.0852 8.97376 24.786 8.58914 24.4014 8.37547V3.46094ZM0.341563 3.46094H10.7689V8.37547C10.3843 8.54641 10.0852 8.97376 9.99968 9.1447C9.91421 9.44384 9.78601 9.9994 9.78601 10.6832V23.8455C9.78601 24.9994 10.3843 25.6832 11.5381 25.6832C12.0937 25.6832 12.692 25.4695 12.8629 25.1703C13.1621 24.7857 13.3757 24.3156 13.3757 23.8455V11.1105C13.3757 10.4267 13.2903 9.87119 13.2048 9.44384C12.9911 9.05923 12.692 8.58914 12.3501 8.37547V3.46094H22.3074V8.37547C21.9228 8.54641 21.5381 8.97376 21.4527 9.23017C21.3672 9.52931 21.2817 10.0849 21.2817 10.6832C21.2817 10.7686 21.3672 10.9823 21.3672 11.0678V22.3498C21.3672 24.102 21.0681 25.8541 20.5125 27.1789C19.9142 28.6319 18.6749 29.8712 16.8373 30.7259C15.5125 31.3242 13.6749 31.5806 11.3245 31.5806H9.78601C9.10225 31.5806 8.33302 31.4097 7.64926 31.3242C6.96549 31.2387 6.28173 30.9396 5.81165 30.7259C4.82874 30.2558 3.88857 29.572 3.29028 28.8883C2.60652 28.2045 2.05096 27.2216 1.83729 26.2814C1.58088 25.2131 1.3672 23.8455 1.3672 22.3071V10.8114C1.3672 10.2131 1.28173 9.65752 1.15353 9.35837C1.06806 8.97376 0.683443 8.58914 0.298828 8.37547L0.341563 3.46094Z" fill="#00509E"/>
<path fill-rule="evenodd" clip-rule="evenodd" d="M34.2735 9.52986V17.094C34.359 17.094 34.4872 17.1367 34.5726 17.1367C34.7009 17.1794 34.8291 17.1794 34.9145 17.1794C34.9573 17.1794 35.0427 17.1794 35.1282 17.1367C35.2137 17.094 35.2991 17.0512 35.4273 17.0512C35.641 17.0512 35.8547 17.0085 36.0256 16.9658C36.0684 16.9658 36.0684 16.9658 36.1111 16.923C36.2393 16.8803 36.3248 16.7948 36.4103 16.7521C36.453 16.7094 36.453 16.7094 36.4957 16.6666C36.5385 16.6239 36.5385 16.6239 36.5812 16.5811C36.7094 16.4102 36.8376 16.1965 36.8376 15.9829V16.0256V15.9829C36.8376 15.9401 36.8803 15.8974 36.8803 15.8119C36.8803 15.7692 36.9231 15.6837 36.9231 15.5982C36.9658 15.2136 37.0085 14.7435 37.0085 14.188V12.2649C37.0085 11.3675 36.7949 10.6837 36.4103 10.2136C36.0256 9.78627 35.4273 9.52986 34.6581 9.52986H34.2735ZM33.7179 17.3931V9.01704H34.5726C35.5128 9.01704 36.2393 9.31619 36.7521 9.87175C37.2222 10.4273 37.4786 11.2393 37.4786 12.2649V14.188C37.4786 14.7435 37.4359 15.2564 37.3504 15.6837C37.3504 15.7692 37.3077 15.8119 37.3077 15.8974C37.3077 15.9401 37.265 16.0256 37.265 16.0683C37.265 16.4102 37.094 16.7094 36.9231 16.9658C36.8803 17.0085 36.8376 17.0512 36.8376 17.094C36.7949 17.1367 36.7521 17.1794 36.7521 17.1794C36.6667 17.2649 36.4957 17.3931 36.282 17.4786C36.2393 17.4786 36.1966 17.5213 36.1538 17.5213C35.9402 17.6068 35.641 17.6495 35.3846 17.6495C35.3846 17.6495 35.2991 17.6495 35.2564 17.6923C35.1282 17.735 35 17.735 34.8718 17.735C34.7436 17.735 34.6154 17.6923 34.4444 17.6923C34.3162 17.6495 34.1453 17.6495 33.9744 17.6495H33.7179V17.3931ZM24.4017 3.20508H36.5812C37.3504 3.20508 38.1197 3.24781 38.8034 3.29055C38.9316 3.29055 39.0598 3.29055 39.1453 3.33328C39.7009 3.37602 40.2137 3.46149 40.6838 3.54696C40.8547 3.58969 40.9829 3.58969 41.1538 3.67516C41.282 3.7179 41.453 3.76063 41.6239 3.8461C42.3932 4.14525 43.0769 4.61533 43.6325 5.12816C43.7607 5.25636 43.9316 5.38457 44.0171 5.51277C44.1453 5.64098 44.2735 5.76918 44.4017 5.94012C45 6.70935 45.4273 7.56405 45.641 8.41875C45.6838 8.58969 45.7265 8.76063 45.7692 8.93157C45.812 9.10251 45.8547 9.31619 45.8547 9.48713C46.0256 10.47 46.1538 11.6239 46.1538 12.8205V15.3418C46.1538 15.5128 46.1111 15.7264 46.1111 15.8974C46.1111 16.0683 46.0684 16.282 46.0256 16.4529C45.8974 17.3931 45.6838 18.2478 45.4701 18.9743C45.4273 19.1025 45.3846 19.2307 45.3419 19.4017C45.2991 19.5299 45.2137 19.6581 45.1709 19.829C44.8291 20.5555 44.359 21.1965 43.8461 21.6239C43.6325 21.7948 43.4188 21.9658 43.2051 22.094C42.9915 22.2222 42.735 22.3931 42.4786 22.5213C41.1111 23.0769 39.4017 23.4615 37.265 23.4615H34.2308C34.2308 23.5042 34.2308 23.547 34.188 23.5897C34.188 23.6752 34.1453 23.7606 34.1453 23.8034C34.1453 24.1025 34.188 24.4017 34.2308 24.6581C34.2735 24.9145 34.3162 25.1282 34.3162 25.2991C34.3162 25.3418 34.3162 25.3846 34.359 25.3846C34.359 25.4273 34.4017 25.47 34.4017 25.5128C34.5299 25.7264 34.7009 25.9401 34.9145 26.0256L35.0855 26.1111V31.4102H24.1453V26.1111L24.2735 26.0256C24.3162 26.0256 24.3162 25.9829 24.359 25.9401C24.4017 25.8974 24.4017 25.8974 24.4444 25.8547C24.6154 25.6837 24.7436 25.47 24.8291 25.2991C24.8291 25.2564 24.8718 25.2136 24.8718 25.1709C24.8718 25.1282 24.9145 25.0854 24.9145 25.0427C24.9573 24.7863 25.0427 24.4444 25.0427 24.017V10.8974C25.0427 10.641 25 10.3418 25 10.0854C24.9573 9.82901 24.9573 9.5726 24.9573 9.40166C24.9573 9.35892 24.9573 9.31619 24.9145 9.31619C24.9145 9.27345 24.8718 9.23072 24.8718 9.18798C24.7436 8.97431 24.5726 8.76063 24.359 8.67516L24.188 8.58969V3.20508H24.4017ZM36.5812 3.7179H24.7009V8.20508C24.9573 8.37602 25.1709 8.63243 25.2991 8.88884C25.3419 8.93157 25.3419 9.01704 25.3846 9.05978C25.4273 9.14525 25.4273 9.18798 25.4273 9.27346V9.31619V9.35892C25.4273 9.5726 25.4701 9.78628 25.4701 10.0427C25.5128 10.2991 25.5128 10.5982 25.5128 10.8974V24.0598C25.5128 24.4871 25.4701 24.8717 25.3846 25.1709C25.3846 25.2136 25.3419 25.2991 25.3419 25.3418C25.3419 25.3846 25.2991 25.47 25.2991 25.47C25.2137 25.7264 25 26.0256 24.7863 26.2393C24.7436 26.282 24.7009 26.3247 24.6581 26.3675C24.6581 26.3675 24.6581 26.3675 24.6154 26.3675V30.8119H34.5299V26.4529C34.2735 26.282 34.0598 26.0683 33.8889 25.7692C33.8461 25.7264 33.8461 25.641 33.8034 25.5982C33.8461 25.5128 33.8461 25.4273 33.8034 25.3846V25.3418V25.2991C33.8034 25.2136 33.7607 24.9572 33.7179 24.7008C33.6752 24.4444 33.6325 24.1025 33.6325 23.7606C33.6325 23.6752 33.6752 23.5897 33.6752 23.4615C33.6752 23.376 33.7179 23.2478 33.7179 23.2051V22.9487H37.265C39.3162 22.9487 40.9402 22.6068 42.1795 22.0085C42.4359 21.8803 42.6496 21.7521 42.8632 21.6239C43.0769 21.4957 43.2479 21.3247 43.4615 21.1965C43.9316 20.8119 44.3162 20.2136 44.6154 19.5726C44.6581 19.4444 44.7436 19.3162 44.7863 19.188C44.8291 19.0598 44.8718 18.9316 44.9145 18.8034C45.1282 18.1196 45.3419 17.2649 45.4701 16.3675C45.5128 16.1965 45.5128 16.0256 45.5556 15.8119C45.5556 15.641 45.5983 15.47 45.5983 15.2564V12.735C45.5983 11.5811 45.5128 10.47 45.3419 9.48713C45.2991 9.31619 45.2564 9.10251 45.2564 8.93157C45.2137 8.76063 45.1709 8.58969 45.1282 8.41875C44.9573 7.64952 44.5299 6.83756 44.0171 6.1538C43.9316 6.02559 43.8034 5.89739 43.6752 5.76918C43.547 5.64098 43.4188 5.51277 43.2906 5.4273C42.735 4.95722 42.1367 4.52986 41.453 4.27345C41.3248 4.23072 41.1966 4.18798 41.0256 4.14525C40.8974 4.10251 40.7692 4.05978 40.5983 4.05978C40.1709 3.97431 39.6581 3.93157 39.1026 3.88884C38.9744 3.88884 38.8889 3.88884 38.7607 3.8461C38.1197 3.76063 37.3504 3.7179 36.5812 3.7179ZM0.34188 3.20508H11.0684V8.58969L10.8974 8.67516C10.8547 8.67516 10.812 8.7179 10.7692 8.76063C10.7265 8.80337 10.6838 8.80337 10.641 8.8461C10.4701 9.01704 10.2991 9.18798 10.2564 9.31619C10.2564 9.35892 10.2564 9.35892 10.2137 9.40166C10.2137 9.4444 10.1709 9.48713 10.1709 9.5726C10.0855 9.87175 10.0427 10.2991 10.0427 10.7692V11.1538V23.9316C10.0427 24.4444 10.1709 24.829 10.4274 25.0854C10.6838 25.3418 11.0256 25.47 11.5385 25.47C11.7949 25.47 12.0513 25.4273 12.265 25.3418C12.3077 25.3418 12.3077 25.2991 12.3504 25.2991C12.4786 25.2564 12.6068 25.1709 12.6496 25.0854C12.6923 25.0427 12.735 25 12.7778 24.9572C12.8205 24.9145 12.8205 24.8717 12.8632 24.7863C12.9915 24.5299 13.0769 24.2307 13.0769 23.9316V11.1111C13.0769 10.7692 13.0342 10.47 13.0342 10.2136C12.9915 9.95722 12.9487 9.74354 12.906 9.5726C12.8205 9.40166 12.6923 9.18798 12.5641 9.01704C12.4359 8.8461 12.3077 8.7179 12.1795 8.63243L12.0513 8.54696V3.20508H22.5641V8.58969L22.3932 8.67516C22.3504 8.7179 22.3077 8.7179 22.265 8.76063C22.2222 8.80337 22.1795 8.80337 22.1368 8.8461C21.9231 9.01704 21.7521 9.23072 21.6667 9.40166C21.6667 9.4444 21.6239 9.48713 21.6239 9.52986C21.6239 9.5726 21.5812 9.61534 21.5812 9.70081C21.5385 9.99995 21.4957 10.3846 21.4957 10.7692C21.4957 10.7692 21.4957 10.8547 21.5385 10.8974C21.5812 10.9829 21.5812 11.0683 21.5812 11.1538V22.4786C21.5812 23.376 21.4957 24.2735 21.3675 25.0854C21.3248 25.2136 21.3248 25.3418 21.282 25.47C21.1538 26.1538 20.9402 26.7948 20.6838 27.3931C20.5983 27.6068 20.5128 27.8205 20.3846 28.0341C20.2564 28.2478 20.1282 28.4188 20 28.6324C19.2735 29.6153 18.2479 30.47 16.8376 31.1111C16.1538 31.4102 15.3419 31.6666 14.4017 31.7948C13.4615 31.923 12.3932 32.0085 11.2393 32.0085H9.70085C9.23077 32.0085 8.71795 31.923 8.20513 31.8376C7.94872 31.7948 7.73504 31.7521 7.52137 31.7521C6.83761 31.6239 6.11111 31.3675 5.64103 31.1538C5.51282 31.0683 5.38461 31.0256 5.21368 30.9401C5.08547 30.8547 4.91453 30.7692 4.78632 30.6837C4.10256 30.2564 3.46154 29.7435 3.03419 29.2735C2.94872 29.188 2.82051 29.0598 2.73504 28.9743C2.64957 28.8461 2.5641 28.7606 2.47863 28.6324C2.00855 28.0341 1.66667 27.2649 1.49573 26.5384C1.45299 26.3675 1.41026 26.2393 1.36752 26.0683C1.36752 25.8119 1.36752 25.641 1.32479 25.47C1.15385 24.5726 1.06838 23.547 1.06838 22.4358V11.6666V10.8119C1.06838 10.5555 1.02564 10.2564 1.02564 9.99995C1.02564 9.95722 1.02564 9.91448 1.02564 9.87175C0.982906 9.70081 0.940171 9.52986 0.897436 9.40166C0.897436 9.35892 0.854701 9.31619 0.854701 9.27346C0.854701 9.23072 0.811966 9.18798 0.769231 9.14525C0.641026 8.93157 0.384615 8.7179 0.17094 8.58969L0 8.50422V8.33328L0.0854701 3.46149V3.20508H0.34188ZM10.5128 3.7179H0.641026L0.51282 8.24781C0.769231 8.41875 1.02564 8.63243 1.19658 8.88884C1.23932 8.97431 1.28205 9.01704 1.28205 9.05978C1.36752 9.14525 1.36752 9.23072 1.41026 9.27346C1.45299 9.40166 1.49573 9.61533 1.53846 9.78627C1.53846 9.82901 1.53846 9.87175 1.53846 9.91448C1.5812 10.1709 1.62393 10.47 1.62393 10.7692V11.6239V22.3504C1.62393 23.4615 1.7094 24.4444 1.88034 25.2991C1.92308 25.47 1.92308 25.5982 1.96581 25.7692C2.00855 25.9401 2.05128 26.0683 2.09402 26.2393C2.22222 26.8803 2.5641 27.5641 2.94872 28.1196C3.03419 28.2478 3.11966 28.3333 3.20513 28.4188C3.2906 28.5042 3.37607 28.6324 3.46154 28.7179C3.84615 29.188 4.44444 29.6581 5.08547 30.0427C5.21367 30.1282 5.34188 30.2136 5.47009 30.2564C5.59829 30.3418 5.7265 30.3846 5.8547 30.47C6.32479 30.6837 6.96581 30.9401 7.60684 31.0256C7.86325 31.0683 8.07692 31.1111 8.2906 31.1538C8.76068 31.2393 9.2735 31.3247 9.70085 31.3247H11.2393C12.3932 31.3247 13.4188 31.2393 14.3162 31.1111C15.2137 30.9829 15.9829 30.7692 16.6239 30.47C17.906 29.8717 18.8889 29.0598 19.5726 28.1623C19.7009 27.9914 19.8291 27.8205 19.9145 27.6068C20 27.4358 20.0855 27.2222 20.1709 27.0512C20.3846 26.4957 20.5983 25.8974 20.7265 25.2136C20.7692 25.0854 20.7692 24.9572 20.812 24.829C20.9402 24.017 21.0256 23.1623 21.0256 22.3076V11.1111C21.0256 11.1111 21.0256 11.0256 20.9829 10.9829C20.9402 10.8974 20.9402 10.8119 20.9402 10.7264C20.9402 10.2991 20.9829 9.87175 21.0684 9.52986C21.0684 9.44439 21.1111 9.40166 21.1111 9.35892C21.1111 9.31619 21.1538 9.27345 21.1538 9.23072C21.2393 8.97431 21.4957 8.67516 21.7949 8.41875C21.8376 8.37602 21.9231 8.33328 21.9658 8.29055H22.0085V3.7179H12.6068V8.20508C12.7778 8.33328 12.906 8.46149 13.0342 8.67516C13.2051 8.88884 13.3333 9.10251 13.4188 9.31619V9.35892V9.40166C13.4615 9.61533 13.5043 9.87175 13.547 10.1282C13.5897 10.4273 13.6325 10.7264 13.6325 11.1111V23.8888C13.6325 24.2735 13.5043 24.6581 13.3333 25C13.2906 25.0854 13.2479 25.1282 13.2051 25.2136C13.1624 25.2564 13.1197 25.3418 13.0769 25.3846C12.9487 25.5555 12.7778 25.6837 12.5641 25.7692C12.5214 25.7692 12.4786 25.8119 12.4359 25.8119C12.1795 25.8974 11.8376 25.9829 11.5385 25.9829C10.8974 25.9829 10.3846 25.7692 10.0427 25.4273C9.70085 25.0427 9.52991 24.5299 9.52991 23.8888V11.1111V10.7264C9.52991 10.2136 9.57265 9.78628 9.65812 9.4444C9.65812 9.35892 9.70085 9.31619 9.70085 9.27346C9.70085 9.23072 9.74359 9.14525 9.74359 9.10251C9.82906 8.93157 10 8.67516 10.2564 8.46149C10.2991 8.41875 10.3846 8.37602 10.4274 8.33328C10.4274 8.33328 10.4701 8.33328 10.4701 8.29055L10.5128 3.7179Z" fill="#EE7005"/>
<path fill-rule="evenodd" clip-rule="evenodd" d="M30.4701 20.7687C29.5299 21.4952 27.906 22.991 27.735 22.991C27.6923 22.991 27.6496 22.9482 27.6068 22.8627C27.5641 22.82 27.5641 22.6918 27.5641 22.5209C27.5641 22.5209 27.6068 22.3927 27.735 22.1363C27.8205 21.8798 27.906 21.6662 27.9915 21.4098L30.1709 15.3841C30.2137 15.2132 30.2991 14.9995 30.3846 14.7431C30.6838 13.9739 30.812 13.461 30.812 13.2046C30.812 12.9055 30.6838 12.6063 30.4273 12.3927C30.1709 12.1363 29.8718 12.0508 29.5726 12.0508C28.8462 12.0508 27.8205 12.5636 26.453 13.5892C25.1282 14.6149 23.2479 16.3243 20.812 18.8029L23.2051 12.3927H20.2564L19.4017 14.7004C19.3162 14.8713 18.8889 15.4696 18.0769 16.367C17.265 17.3072 16.2393 18.4183 15 19.7431V23.2046C15.2564 22.991 15.5556 22.7345 15.8547 22.4781C16.1538 22.2217 16.453 21.8798 16.7521 21.538L15.641 24.5294C15.5556 24.7858 15.4701 24.9995 15.4701 25.1704C15.4273 25.3841 15.3846 25.5551 15.3846 25.726C15.3846 26.1106 15.4701 26.4525 15.641 26.7089C15.812 26.9653 16.0684 27.0935 16.2821 27.0935C16.7949 27.0935 18.1624 25.8969 20.3419 23.5038C22.5214 21.0679 24.5726 19.0166 26.4103 17.3499L24.3162 23.1192C24.0598 23.7602 23.8889 24.273 23.8462 24.6576C23.7607 24.9995 23.7179 25.2986 23.7179 25.5978C23.7179 26.0251 23.8462 26.4098 24.1453 26.6662C24.4444 26.9226 24.7863 27.0508 25.2564 27.0508C26.0256 27.0508 27.0085 26.7089 28.1624 25.9824C28.9744 25.3841 29.7436 24.7004 30.3419 23.9311V20.7687H30.4701Z" fill="#EE7005"/>
<path fill-rule="evenodd" clip-rule="evenodd" d="M30.3431 21.0251C29.9585 21.3243 29.5312 21.7089 29.1038 22.0935C28.4628 22.6491 27.8645 23.1619 27.7363 23.1619C27.6936 23.1619 27.6936 23.1619 27.6508 23.1192C27.6508 23.1192 27.6508 23.1192 27.6081 23.1192C27.5654 23.0764 27.5226 23.0337 27.5226 22.991L30.3431 21.0251ZM28.9329 21.8798C29.403 21.4525 29.9585 20.9824 30.3859 20.6833C30.3859 20.6833 30.4286 20.6405 30.4713 20.6405C30.5568 20.6405 30.5995 20.6833 30.5995 20.7687V24.0166C30.5995 24.0593 30.5995 24.0593 30.5568 24.1021C30.2577 24.4867 29.9158 24.8713 29.5312 25.2132C29.1466 25.5551 28.7619 25.8542 28.3346 26.1961C27.8218 26.4952 27.3944 26.7516 26.9671 26.9226C26.8816 26.9653 26.7961 27.008 26.7107 27.008C26.1978 27.179 25.7705 27.2645 25.3431 27.2645C25.0013 27.2645 24.7021 27.179 24.403 27.0508C24.3602 27.008 24.3175 27.008 24.2748 26.9653C24.232 26.9226 24.1893 26.8798 24.1466 26.8798C24.0183 26.7516 23.8901 26.6234 23.8474 26.4525C23.8474 26.4098 23.8047 26.4098 23.8047 26.367C23.7192 26.1961 23.6765 25.9824 23.6765 25.726C23.6765 25.5123 23.7192 25.2986 23.7619 25.0422C23.7619 24.9995 23.7619 24.9568 23.8047 24.914C23.8047 24.8713 23.8047 24.8286 23.8474 24.7858C23.8901 24.6149 23.9329 24.4012 24.0183 24.1448C24.1038 23.8884 24.1893 23.5892 24.3175 23.2474L26.2406 17.9055C25.4286 18.6747 24.5739 19.4867 23.6765 20.3841C22.6508 21.4098 21.6252 22.5209 20.5141 23.7174C19.1038 25.2986 17.9927 26.3243 17.2662 26.8798C17.138 27.008 17.0098 27.0935 16.8816 27.1362C16.6679 27.2645 16.497 27.3499 16.326 27.3499C16.1124 27.3499 15.9414 27.2645 15.7705 27.0935C15.7277 27.0508 15.7277 27.0508 15.685 27.008C15.6423 26.9653 15.6423 26.9226 15.5995 26.9226C15.5141 26.7944 15.4286 26.6662 15.3859 26.538C15.3859 26.4952 15.3859 26.4952 15.3431 26.4525C15.3004 26.2815 15.2577 26.0679 15.2577 25.8969C15.2577 25.8115 15.2577 25.726 15.2577 25.6405C15.2577 25.5551 15.3004 25.4696 15.3004 25.3414C15.3431 25.2132 15.3859 25.0422 15.4286 24.8713C15.4286 24.8286 15.4286 24.8286 15.4713 24.7858C15.4713 24.7431 15.5141 24.7004 15.5141 24.7004L16.4115 22.3072L16.3688 22.3499C16.1978 22.5209 16.0696 22.6491 15.9414 22.82C15.7705 22.9482 15.6423 23.0764 15.5141 23.2046C15.3859 23.3328 15.2149 23.461 15.0867 23.5465C15.0867 23.5465 15.044 23.5892 15.0013 23.5892C14.9158 23.5892 14.873 23.5465 14.873 23.461V19.9995C14.873 19.9568 14.873 19.9568 14.9158 19.914C15.5141 19.273 16.0696 18.6747 16.5824 18.0764C17.1807 17.3927 17.6081 16.8798 18.0354 16.4098C18.6337 15.726 19.0183 15.2559 19.1893 14.9995C19.232 14.9568 19.2748 14.914 19.2748 14.8713C19.2748 14.8286 19.3175 14.8286 19.3175 14.7858L20.1722 12.4781C20.1722 12.4354 20.2149 12.3927 20.3004 12.3927H23.2491H23.2919C23.3346 12.4354 23.3773 12.4781 23.3773 12.5636L21.1551 18.4183C22.7363 16.8371 24.0611 15.5551 25.1295 14.6149C25.3431 14.4012 25.5568 14.2303 25.7705 14.0593C25.9842 13.8884 26.1978 13.7174 26.3688 13.5892C26.9243 13.1619 27.4371 12.82 27.9072 12.5636C27.9927 12.5209 28.0782 12.4781 28.1636 12.4354C28.6765 12.179 29.1466 12.0508 29.5312 12.0508C29.7021 12.0508 29.873 12.0935 30.044 12.1363C30.2149 12.179 30.3431 12.3072 30.4713 12.4354C30.5995 12.5209 30.685 12.6491 30.7277 12.7773C30.7277 12.82 30.7705 12.82 30.7705 12.8627C30.856 13.0337 30.856 13.1619 30.856 13.3756C30.856 13.5892 30.7705 13.8884 30.6423 14.3585C30.5995 14.4439 30.5995 14.5294 30.5568 14.6149C30.5141 14.7431 30.4713 14.8286 30.4286 14.914V15.085C30.3859 15.2559 30.3004 15.3841 30.2577 15.5123L28.0782 21.538C28.0354 21.7516 27.95 21.9653 27.8645 22.179V22.2217C27.8218 22.3072 27.779 22.3927 27.779 22.4781C27.7363 22.5636 27.7363 22.6063 27.7363 22.6063C27.7363 22.6918 27.7363 22.7345 27.7363 22.7773C27.7363 22.82 27.7363 22.8627 27.779 22.8627C27.779 22.8627 27.779 22.8627 27.779 22.9055C27.779 22.9055 27.779 22.9055 27.779 22.9482C27.8218 22.8627 28.3346 22.3927 28.9329 21.8798ZM27.4371 22.7773C27.4371 22.7345 27.4371 22.6491 27.4371 22.5636V22.5209C27.4371 22.4781 27.4799 22.4354 27.4799 22.3499C27.5226 22.3072 27.5226 22.2217 27.5654 22.0935V22.0508C27.6508 21.8371 27.7363 21.6234 27.779 21.4098L29.9585 15.3841C30.0013 15.2986 30.044 15.1277 30.1295 14.9568L30.2149 14.7431C30.2577 14.6149 30.3004 14.5294 30.3431 14.4439C30.3859 14.3585 30.4286 14.273 30.4286 14.1875C30.5568 13.7602 30.6423 13.461 30.6423 13.2901C30.6423 13.1619 30.5995 13.0337 30.5568 12.9055C30.5568 12.9055 30.5568 12.8627 30.5141 12.8627C30.4713 12.7773 30.3859 12.6491 30.3004 12.6063C30.1722 12.4781 30.044 12.4354 29.9158 12.3499C29.7876 12.3072 29.6594 12.2645 29.4884 12.2645C29.1466 12.2645 28.7192 12.3927 28.2064 12.6491C28.1209 12.6918 28.0354 12.7345 27.95 12.7773C27.4799 13.0337 27.0098 13.3756 26.4542 13.8029C26.2833 13.9311 26.0696 14.1021 25.856 14.273C25.6423 14.4439 25.4286 14.6149 25.2149 14.8286C24.0183 15.8542 22.5654 17.2217 20.856 19.0166C20.8132 19.0593 20.7277 19.0593 20.685 19.0166C20.6423 18.9739 20.6423 18.9311 20.6423 18.8884L23.0782 12.6063H20.3859L19.5739 14.8713C19.5739 14.914 19.5312 14.9568 19.5312 14.9995C19.4884 15.0422 19.4884 15.085 19.4457 15.1704C19.232 15.4696 18.8474 15.9397 18.2491 16.6234C17.8218 17.0935 17.3944 17.6063 16.8816 18.1619C16.3688 18.7174 15.8132 19.3157 15.2149 19.9568V23.1619C15.3004 23.1192 15.3431 23.0337 15.4286 22.9482C15.5568 22.82 15.7277 22.6918 15.856 22.5636C15.9842 22.4354 16.1551 22.2645 16.2833 22.1362C16.4115 21.9653 16.5824 21.7944 16.7534 21.6234C16.7961 21.5807 16.8816 21.5807 16.9243 21.6234C16.9671 21.6662 16.9671 21.7089 16.9671 21.7516L15.856 24.7431C15.856 24.7858 15.8132 24.8286 15.8132 24.8286C15.8132 24.8713 15.8132 24.8713 15.7705 24.914C15.7277 25.085 15.685 25.2132 15.6423 25.3414C15.6423 25.4268 15.5995 25.5123 15.5995 25.5978C15.5995 25.6833 15.5995 25.7687 15.5995 25.8542C15.5995 26.0251 15.5995 26.1961 15.6423 26.367C15.6423 26.367 15.6423 26.4098 15.685 26.4525C15.7277 26.5807 15.7705 26.7089 15.856 26.7944C15.8987 26.8371 15.8987 26.8371 15.9414 26.8798C15.9842 26.9226 15.9842 26.9226 16.0269 26.9653C16.1551 27.0935 16.2833 27.1362 16.4115 27.1362C16.497 27.1362 16.6252 27.0935 16.8389 26.9653C16.9671 26.8798 17.0525 26.8371 17.2235 26.7089C17.95 26.1533 19.0183 25.1277 20.4286 23.5892C21.5397 22.3927 22.5654 21.2815 23.591 20.2132C24.6166 19.1875 25.5995 18.2474 26.5397 17.3927C26.5824 17.3499 26.6679 17.3499 26.7107 17.3927C26.7534 17.4354 26.7534 17.4781 26.7534 17.5209L24.5312 23.2901C24.403 23.632 24.3175 23.9311 24.232 24.1448C24.1466 24.4012 24.1038 24.6149 24.0611 24.7858C24.0611 24.8286 24.0183 24.8713 24.0183 24.914C24.0183 24.9568 24.0183 24.9995 23.9756 25.0422C23.9329 25.2559 23.8901 25.4696 23.8901 25.6833C23.8901 25.8969 23.9329 26.0679 23.9756 26.2388C23.9756 26.2815 23.9756 26.2815 24.0183 26.3243C24.0611 26.4525 24.1466 26.5807 24.2748 26.6662C24.3175 26.7089 24.3602 26.7089 24.403 26.7516C24.4457 26.7944 24.4884 26.7944 24.5312 26.8371C24.7448 26.9653 25.0013 27.008 25.3431 27.008C25.7277 27.008 26.1551 26.9226 26.6252 26.7516C26.7107 26.7089 26.7961 26.7089 26.8816 26.6662C27.3089 26.4952 27.7363 26.2815 28.2064 25.9824C28.6337 25.6833 29.0183 25.3841 29.3602 25.0422C29.7021 24.7004 30.044 24.4012 30.3004 24.0166V21.0679L27.4371 22.7773Z" fill="#00509E"/>
<path fill-rule="evenodd" clip-rule="evenodd" d="M74.4868 2.64969H76.7518V10.0429C76.7518 10.8976 76.6236 11.624 76.3672 12.2223C76.1108 12.8206 75.8116 13.2907 75.3843 13.6326C74.9569 13.9745 74.4868 14.2309 73.9313 14.4018C73.3757 14.5728 72.8202 14.6155 72.2219 14.6155C71.6236 14.6155 71.068 14.53 70.5125 14.4018C69.9569 14.2309 69.4868 13.9745 69.0595 13.6326C68.6321 13.2907 68.2902 12.8206 68.0766 12.2223C67.8202 11.624 67.692 10.9403 67.692 10.0429V2.64969H69.9569V10.1283C69.9569 11.0685 70.1279 11.7523 70.5125 12.1369C70.8971 12.5215 71.4526 12.6924 72.2219 12.6924C72.9911 12.6924 73.5467 12.5215 73.9313 12.1369C74.3159 11.7523 74.4868 11.0685 74.4868 10.1283V2.64969ZM79.1449 14.4446V5.94029H80.9826V6.83772C81.3672 6.58131 81.7518 6.3249 82.1791 6.11123C82.6065 5.89755 83.0766 5.76935 83.5894 5.76935C84.4441 5.76935 85.0851 6.02576 85.4697 6.53858C85.8971 7.0514 86.068 7.73516 86.068 8.58986V14.4018H84.0595V8.93174C84.0595 8.37618 83.974 7.94883 83.8031 7.73516C83.6321 7.52148 83.3757 7.43601 83.0338 7.43601C82.6065 7.43601 82.2219 7.52148 81.88 7.73516C81.5808 7.94883 81.3244 8.11977 81.1535 8.33345V14.4446H79.1449ZM88.4184 4.40183V2.52148H90.427V4.40183H88.4184ZM90.427 14.4446H88.4184V5.94029H90.427V14.4446ZM91.8373 5.94029H93.8458L95.2561 11.6668H95.2988L96.7518 5.94029H98.7603L96.3244 14.4018H94.1877L91.8373 5.94029ZM104.572 9.14542C104.53 8.54712 104.401 8.11978 104.102 7.77789C103.803 7.43601 103.418 7.30781 102.948 7.30781C102.478 7.30781 102.051 7.47875 101.795 7.77789C101.495 8.11978 101.367 8.54712 101.324 9.14542H104.572ZM101.324 10.5129C101.367 11.4104 101.538 12.0087 101.88 12.3933C102.222 12.7779 102.606 12.9488 103.119 12.9488C103.589 12.9488 103.974 12.8634 104.23 12.6497C104.487 12.4787 104.743 12.2223 105 11.9232L106.453 12.8206C106.068 13.4189 105.555 13.8463 105 14.1454C104.401 14.4018 103.718 14.5728 102.906 14.5728C102.35 14.5728 101.837 14.4873 101.41 14.2736C100.983 14.0599 100.598 13.7608 100.299 13.3762C99.9996 12.9916 99.7432 12.5215 99.5723 12.0087C99.4014 11.4531 99.3159 10.8548 99.3159 10.1711C99.3159 9.4873 99.4014 8.88901 99.5723 8.33345C99.7432 7.77789 99.9996 7.30781 100.299 6.96593C100.598 6.58131 100.983 6.28217 101.453 6.06849C101.923 5.85482 102.436 5.76935 102.991 5.76935C103.547 5.76935 104.017 5.85482 104.487 6.06849C104.914 6.28217 105.299 6.58131 105.555 6.92319C105.854 7.26507 106.068 7.69242 106.239 8.16251C106.41 8.6326 106.453 9.14542 106.453 9.6155V10.4275H101.324V10.5129ZM107.991 14.4446V5.94029H109.829V7.39328H109.871C110.128 6.88046 110.427 6.49584 110.812 6.23943C111.196 5.98302 111.666 5.81208 112.265 5.81208V7.94883C112.222 7.94883 112.136 7.94883 112.094 7.94883C112.051 7.94883 111.965 7.94883 111.88 7.94883C111.624 7.94883 111.41 7.99157 111.153 8.11977C110.94 8.24798 110.726 8.37618 110.555 8.54713C110.384 8.71807 110.256 8.84627 110.128 9.01721C110.042 9.14542 109.957 9.27362 109.957 9.31636V14.4446H107.991ZM117.649 8.20525C117.436 7.99157 117.222 7.77789 116.923 7.60695C116.666 7.43601 116.367 7.30781 116.068 7.30781C115.683 7.30781 115.384 7.39328 115.213 7.52148C115.042 7.69242 114.957 7.86336 114.957 8.11977C114.957 8.37618 115.042 8.54712 115.256 8.71807C115.47 8.84627 115.726 9.01721 116.025 9.10268C116.324 9.23089 116.666 9.35909 117.051 9.4873C117.436 9.6155 117.777 9.78644 118.077 10.0001C118.376 10.2138 118.632 10.4702 118.846 10.8121C119.059 11.154 119.145 11.5813 119.145 12.0941C119.145 12.5215 119.059 12.9061 118.889 13.248C118.718 13.5471 118.504 13.8463 118.248 14.0599C117.948 14.2736 117.649 14.4446 117.265 14.53C116.88 14.6155 116.453 14.6582 116.025 14.6582C115.342 14.6582 114.743 14.53 114.188 14.2309C113.632 13.9317 113.205 13.5044 112.82 12.9488L114.188 11.9232C114.444 12.2651 114.701 12.5215 115.042 12.7779C115.384 13.0343 115.726 13.1625 116.153 13.1625C116.495 13.1625 116.795 13.077 117.008 12.9061C117.222 12.7352 117.35 12.4787 117.35 12.2223C117.35 11.9659 117.265 11.795 117.051 11.624C116.837 11.4531 116.581 11.3249 116.282 11.1967C115.983 11.0685 115.641 10.9403 115.256 10.8121C114.871 10.6839 114.53 10.5129 114.23 10.2993C113.931 10.0856 113.675 9.82918 113.461 9.53003C113.248 9.23089 113.162 8.80354 113.162 8.33345C113.162 7.94883 113.248 7.60695 113.376 7.26507C113.547 6.96593 113.718 6.70952 114.017 6.49584C114.273 6.28217 114.572 6.11123 114.914 6.02576C115.256 5.89755 115.598 5.85482 115.983 5.85482C116.538 5.85482 117.094 5.94029 117.606 6.15396C118.119 6.36764 118.589 6.66678 118.931 7.13687L117.649 8.20525ZM120.983 4.40183V2.52148H122.991V4.40183H120.983ZM122.991 14.4446H120.983V5.94029H122.991V14.4446ZM130.256 8.11977C130.042 7.94883 129.829 7.77789 129.572 7.60695C129.316 7.47875 129.017 7.39328 128.718 7.39328C128.119 7.39328 127.649 7.64969 127.307 8.11977C126.965 8.58986 126.837 9.27362 126.837 10.1711C126.837 11.0685 127.008 11.7523 127.307 12.2223C127.649 12.6924 128.119 12.9488 128.718 12.9488C128.931 12.9488 129.102 12.9061 129.273 12.8634C129.444 12.8206 129.572 12.7352 129.658 12.6924C129.786 12.607 129.871 12.5215 129.957 12.436C130.042 12.3505 130.128 12.2651 130.256 12.1796V8.11977ZM132.265 14.4446H130.555L130.47 13.5471C130.128 13.889 129.743 14.1454 129.401 14.3591C129.059 14.53 128.632 14.6582 128.162 14.6582C127.606 14.6582 127.094 14.53 126.666 14.3164C126.239 14.1027 125.897 13.7608 125.598 13.3335C125.299 12.9061 125.085 12.436 124.957 11.8805C124.829 11.3249 124.743 10.6839 124.743 10.0429C124.743 9.53003 124.829 9.01721 124.957 8.50439C125.085 7.99157 125.342 7.56422 125.598 7.1796C125.897 6.79499 126.239 6.49584 126.666 6.23943C127.094 5.98302 127.564 5.89755 128.119 5.89755C128.29 5.89755 128.461 5.94029 128.675 5.98302C128.889 6.02576 129.059 6.11123 129.273 6.1967C129.444 6.28217 129.658 6.36764 129.786 6.49584C129.957 6.62405 130.085 6.75225 130.171 6.88046H130.213V2.64969H132.222V14.4446H132.265ZM138.461 10.3847C138.119 10.4702 137.777 10.5129 137.436 10.5984C137.094 10.6839 136.795 10.7693 136.538 10.8976C136.282 11.0258 136.025 11.1967 135.897 11.3676C135.726 11.5813 135.641 11.795 135.641 12.0941C135.641 12.3933 135.726 12.6497 135.897 12.8206C136.068 12.9916 136.324 13.077 136.581 13.077C136.752 13.077 136.923 13.0343 137.094 12.9916C137.265 12.9488 137.436 12.8634 137.606 12.7779C137.777 12.6924 137.906 12.607 138.077 12.4787C138.205 12.3505 138.333 12.2651 138.461 12.1796V10.3847ZM138.675 14.4446L138.547 13.7181C138.119 14.0172 137.735 14.2309 137.307 14.3591C136.88 14.53 136.41 14.6155 135.897 14.6155C135.512 14.6155 135.171 14.5728 134.914 14.4446C134.615 14.3164 134.401 14.1454 134.188 13.9317C134.017 13.7181 133.846 13.4617 133.76 13.2052C133.675 12.9488 133.632 12.6497 133.632 12.3505C133.632 11.3676 134.017 10.6411 134.829 10.1283C135.641 9.6155 136.837 9.23089 138.504 9.05995V8.33345C138.504 7.99157 138.376 7.77789 138.162 7.56422C137.948 7.39328 137.649 7.30781 137.265 7.30781C136.795 7.30781 136.41 7.39328 136.111 7.60695C135.812 7.82063 135.598 8.07704 135.384 8.33345L134.059 7.35054C134.188 7.13687 134.359 6.92319 134.615 6.70952C134.829 6.53858 135.085 6.36764 135.384 6.1967C135.683 6.06849 135.983 5.94029 136.282 5.85482C136.581 5.76935 136.923 5.72661 137.222 5.76935C137.777 5.76935 138.29 5.85482 138.675 5.98302C139.102 6.11123 139.444 6.28217 139.701 6.58131C139.957 6.83772 140.171 7.1796 140.299 7.64969C140.427 8.07704 140.47 8.6326 140.47 9.23089V13.2052C140.47 13.4189 140.47 13.6326 140.512 13.8463C140.555 14.0599 140.555 14.2309 140.641 14.4446H138.675ZM147.436 8.11977C147.222 7.94883 147.008 7.77789 146.752 7.60695C146.495 7.47875 146.196 7.39328 145.897 7.39328C145.299 7.39328 144.829 7.64969 144.487 8.11977C144.145 8.58986 144.017 9.27362 144.017 10.1711C144.017 11.0685 144.188 11.7523 144.487 12.2223C144.829 12.6924 145.299 12.9488 145.897 12.9488C146.111 12.9488 146.282 12.9061 146.453 12.8634C146.624 12.8206 146.752 12.7352 146.837 12.6924C146.965 12.607 147.051 12.5215 147.136 12.436C147.222 12.3505 147.307 12.2651 147.436 12.1796V8.11977ZM149.444 14.4446H147.735L147.649 13.5471C147.307 13.889 146.923 14.1454 146.581 14.3591C146.239 14.53 145.812 14.6582 145.342 14.6582C144.786 14.6582 144.273 14.53 143.846 14.3164C143.418 14.1027 143.077 13.7608 142.777 13.3335C142.478 12.9061 142.265 12.436 142.136 11.8805C142.008 11.3249 141.923 10.6839 141.923 10.0429C141.923 9.53003 142.008 9.01721 142.136 8.50439C142.265 7.99157 142.521 7.56422 142.777 7.1796C143.077 6.79499 143.418 6.49584 143.846 6.23943C144.273 5.98302 144.743 5.89755 145.299 5.89755C145.47 5.89755 145.641 5.94029 145.854 5.98302C146.068 6.02576 146.239 6.11123 146.453 6.1967C146.624 6.28217 146.837 6.36764 146.965 6.49584C147.136 6.62405 147.265 6.75225 147.35 6.88046H147.393V2.64969H149.401V14.4446H149.444ZM156.196 9.14542C156.153 8.54712 156.025 8.11978 155.726 7.77789C155.427 7.43601 155.042 7.30781 154.572 7.30781C154.102 7.30781 153.675 7.47875 153.418 7.77789C153.119 8.11978 152.991 8.54712 152.948 9.14542H156.196ZM152.906 10.5129C152.948 11.4104 153.119 12.0087 153.461 12.3933C153.803 12.7779 154.188 12.9488 154.701 12.9488C155.171 12.9488 155.555 12.8634 155.812 12.6497C156.068 12.4787 156.324 12.2223 156.581 11.9232L158.034 12.8206C157.649 13.4189 157.136 13.8463 156.581 14.1454C155.983 14.4018 155.299 14.5728 154.487 14.5728C153.931 14.5728 153.418 14.4873 152.991 14.2736C152.564 14.0599 152.179 13.7608 151.88 13.3762C151.581 12.9916 151.324 12.5215 151.153 12.0087C150.983 11.4531 150.897 10.8548 150.897 10.1711C150.897 9.4873 150.983 8.88901 151.153 8.33345C151.324 7.77789 151.581 7.30781 151.88 6.96593C152.179 6.58131 152.564 6.28217 153.034 6.06849C153.504 5.85482 154.017 5.76935 154.572 5.76935C155.128 5.76935 155.598 5.85482 156.025 6.06849C156.453 6.28217 156.837 6.58131 157.094 6.92319C157.393 7.26507 157.606 7.69242 157.777 8.16251C157.948 8.6326 157.991 9.14542 157.991 9.6155V10.4275H152.906V10.5129ZM69.7005 25.1283H71.4954C71.9227 25.1283 72.2646 25.0856 72.5638 25.0001C72.8202 24.9146 73.0766 24.8292 73.2475 24.6582C73.4184 24.53 73.5467 24.3164 73.5894 24.1454C73.6321 23.9317 73.6749 23.7181 73.6749 23.4617C73.6749 23.2052 73.6321 22.9488 73.5894 22.7779C73.5039 22.5642 73.4184 22.3933 73.2475 22.2651C73.0766 22.1369 72.8629 22.0087 72.5638 21.9232C72.2646 21.8377 71.9227 21.795 71.4954 21.795H69.7005V25.1283ZM67.4355 31.7095V19.9146H71.7518C72.3928 19.9146 72.9484 20.0001 73.4612 20.1283C73.974 20.2565 74.4014 20.4702 74.786 20.7693C75.1279 21.0685 75.427 21.4104 75.5979 21.8805C75.8116 22.3078 75.8971 22.8634 75.8971 23.4617C75.8971 24.0599 75.8116 24.6155 75.5979 25.0428C75.3843 25.4702 75.1279 25.8548 74.786 26.154C74.4441 26.4531 73.974 26.6668 73.4612 26.795C72.9484 26.9232 72.3928 27.0087 71.7518 27.0087H69.7005V31.7523H67.4355V31.7095ZM82.0082 27.436C82.0082 26.4958 81.88 25.7693 81.5808 25.342C81.3244 24.9146 80.8971 24.6582 80.3415 24.6582C79.786 24.6582 79.3586 24.8719 79.1022 25.342C78.8458 25.7693 78.6749 26.4958 78.6749 27.436C78.6749 28.3762 78.8031 29.1027 79.1022 29.53C79.3586 29.9574 79.786 30.2138 80.3415 30.2138C80.8971 30.2138 81.3244 30.0001 81.5808 29.53C81.88 29.1027 82.0082 28.4189 82.0082 27.436ZM76.6663 27.436C76.6663 26.7523 76.7518 26.154 76.9227 25.5984C77.0937 25.0429 77.3501 24.5728 77.6492 24.2309C77.9484 23.8463 78.333 23.5471 78.8031 23.3334C79.2731 23.1198 79.786 23.0343 80.3415 23.0343C80.8971 23.0343 81.4526 23.1198 81.88 23.3334C82.3501 23.5471 82.7347 23.8463 83.0338 24.2309C83.333 24.6155 83.5894 25.0856 83.7603 25.5984C83.9313 26.154 84.0167 26.7523 84.0167 27.436C84.0167 28.1198 83.9313 28.7181 83.7603 29.2736C83.5894 29.8292 83.333 30.2993 83.0338 30.6411C82.7347 31.0258 82.3501 31.3249 81.88 31.5386C81.4099 31.7523 80.8971 31.8377 80.3415 31.8377C79.786 31.8377 79.2304 31.7523 78.8031 31.5386C78.333 31.3249 77.9484 31.0258 77.6492 30.6411C77.3501 30.2565 77.0937 29.7864 76.9227 29.2736C76.7518 28.7181 76.6663 28.1198 76.6663 27.436ZM85.8116 23.2052V20.3847H87.8202V23.2052H89.4868V24.8292H87.8202V29.6155C87.8202 29.8292 87.8629 30.0001 87.9911 30.0856C88.1193 30.1711 88.2902 30.2138 88.5467 30.2138C88.7176 30.2138 88.8458 30.2138 89.0167 30.1711C89.1877 30.1283 89.3159 30.0856 89.4868 30.0856V31.7523C89.1877 31.795 88.9313 31.795 88.6749 31.8377C88.4185 31.8805 88.162 31.8805 87.8629 31.8805C87.0937 31.8805 86.5808 31.7095 86.239 31.3676C85.9398 31.0258 85.7689 30.5557 85.7689 29.9146V24.8292H84.615V23.2052H85.8116ZM91.1108 21.6668V19.7864H93.1193V21.6668H91.1108ZM93.1193 31.7095H91.1108V23.2052H93.1193V31.7095ZM97.8629 31.5386C97.5638 31.5386 97.3501 31.5813 97.1791 31.624C97.0082 31.7095 96.8373 31.795 96.7518 31.8805C96.6236 31.9659 96.5808 32.0941 96.4954 32.1796C96.4526 32.3078 96.4526 32.3933 96.4526 32.4787C96.4526 32.8206 96.6236 33.0343 96.9227 33.2052C97.2646 33.3762 97.8202 33.4189 98.6749 33.4189C99.0167 33.4189 99.2732 33.3762 99.4868 33.3334C99.7005 33.248 99.8714 33.1625 100.042 33.077C100.171 32.9916 100.256 32.8634 100.342 32.7779C100.384 32.6497 100.427 32.5642 100.427 32.4787C100.427 32.3933 100.384 32.2651 100.299 32.1796C100.213 32.0514 100.085 31.9659 99.8714 31.8805C99.6578 31.795 99.4014 31.7095 99.0595 31.624C98.7603 31.5386 98.3757 31.5386 97.8629 31.5386ZM99.615 25.9403C99.615 25.5557 99.4868 25.2138 99.2304 24.9574C98.974 24.701 98.6321 24.53 98.2475 24.53C97.8202 24.53 97.4783 24.6582 97.1791 24.9574C96.9227 25.2138 96.7518 25.5557 96.7518 25.9403C96.7518 26.3249 96.88 26.6668 97.1791 26.9232C97.4355 27.1796 97.8202 27.3505 98.2475 27.3505C98.6321 27.3505 98.974 27.2223 99.2304 26.9232C99.4868 26.6668 99.615 26.3676 99.615 25.9403ZM102.35 24.4446C102.094 24.4446 101.88 24.4446 101.624 24.4873C101.367 24.4873 101.196 24.5728 101.025 24.6582C101.153 24.8292 101.282 25.0429 101.367 25.2993C101.453 25.5557 101.495 25.8121 101.495 26.154C101.495 26.5386 101.41 26.9232 101.282 27.2651C101.153 27.607 100.94 27.9061 100.683 28.1198C100.427 28.3762 100.085 28.5471 99.7005 28.6753C99.3159 28.8035 98.8458 28.889 98.2902 28.889C97.8629 28.889 97.4783 28.9317 97.1791 28.9745C96.88 29.0172 96.7091 29.1882 96.7091 29.4018C96.7091 29.6155 96.8373 29.7864 97.1364 29.8719C97.3928 29.9574 97.7774 30.0001 98.162 30.0429C98.5894 30.0856 99.0167 30.0856 99.4868 30.1283C99.9569 30.1711 100.427 30.2565 100.812 30.3847C101.239 30.5129 101.581 30.7266 101.837 31.0258C102.094 31.3249 102.265 31.7523 102.265 32.3078C102.265 32.607 102.179 32.9061 102.008 33.2052C101.837 33.5044 101.624 33.7608 101.282 34.0172C100.983 34.2736 100.555 34.4446 100.042 34.6155C99.5296 34.7437 98.974 34.8292 98.2902 34.8292C97.1364 34.8292 96.239 34.6582 95.5552 34.3164C94.8714 33.9745 94.5296 33.4617 94.5296 32.8206C94.5296 32.5642 94.5723 32.3505 94.6578 32.1369C94.7432 31.9232 94.8714 31.795 94.9996 31.6668C95.1279 31.5386 95.2988 31.4531 95.4697 31.3676C95.6407 31.3249 95.8116 31.2822 96.0253 31.2822V31.2394C95.9398 31.1967 95.8116 31.1112 95.6834 31.0258C95.5552 30.9403 95.3843 30.8976 95.2561 30.7693C95.1279 30.6839 94.9996 30.5557 94.9142 30.3847C94.8287 30.2565 94.786 30.0429 94.786 29.8292C94.786 29.6155 94.8287 29.4446 94.9569 29.2736C95.0424 29.1027 95.1706 28.9317 95.3415 28.8035C95.4697 28.6753 95.6407 28.5471 95.7689 28.4617C95.8971 28.3762 96.0253 28.3334 96.1535 28.2907C95.8116 27.9916 95.5125 27.6924 95.2561 27.3505C94.9996 27.0087 94.8714 26.5813 94.8714 26.0685C94.8714 25.6839 94.9569 25.342 95.0851 25.0001C95.2133 24.6582 95.427 24.3164 95.7261 24.0599C96.0253 23.8035 96.3672 23.5471 96.7518 23.3762C97.1791 23.2052 97.6492 23.1198 98.2048 23.1198C98.5467 23.1198 98.9313 23.2052 99.3159 23.3334C99.7005 23.4617 100.042 23.6326 100.299 23.889C100.512 23.6326 100.769 23.4189 101.068 23.2907C101.41 23.1625 101.795 23.1198 102.265 23.1198V24.4446H102.35ZM110.555 23.2052V31.6668H108.718V30.7693C108.333 31.0258 107.948 31.2822 107.521 31.4958C107.094 31.7095 106.624 31.8377 106.111 31.8377C105.256 31.8377 104.615 31.5813 104.23 31.0685C103.803 30.5557 103.632 29.8719 103.632 29.0172V23.2052H105.641V28.7181C105.641 29.2736 105.726 29.701 105.897 29.9146C106.068 30.1283 106.324 30.2138 106.666 30.2138C107.094 30.2138 107.478 30.1283 107.82 29.9146C108.119 29.701 108.376 29.53 108.547 29.3164V23.2052H110.555ZM116.752 27.6497C116.41 27.6924 116.068 27.7779 115.726 27.8634C115.384 27.9488 115.085 28.0343 114.829 28.1625C114.572 28.2907 114.316 28.4617 114.188 28.6326C114.017 28.8463 113.931 29.0599 113.931 29.3591C113.931 29.6582 114.017 29.9146 114.188 30.0856C114.359 30.2565 114.615 30.342 114.871 30.342C115.042 30.342 115.213 30.2993 115.384 30.2565C115.555 30.2138 115.726 30.1283 115.897 30.0429C116.068 29.9574 116.196 29.8719 116.367 29.7437C116.495 29.6155 116.624 29.53 116.752 29.4446V27.6497ZM116.965 31.7095L116.837 30.983C116.41 31.2822 116.025 31.4958 115.598 31.624C115.171 31.795 114.701 31.8805 114.188 31.8805C113.803 31.8805 113.461 31.8377 113.205 31.7095C112.906 31.5813 112.692 31.4104 112.478 31.1967C112.265 30.983 112.136 30.7266 112.051 30.4702C111.965 30.2138 111.923 29.9146 111.923 29.6155C111.923 28.6326 112.307 27.9061 113.119 27.3933C113.931 26.8805 115.128 26.4958 116.795 26.3249V25.5984C116.795 25.2565 116.666 25.0428 116.453 24.8292C116.239 24.6582 115.94 24.5728 115.555 24.5728C115.085 24.5728 114.701 24.6582 114.401 24.8719C114.102 25.0856 113.889 25.342 113.675 25.5984L112.393 24.6155C112.521 24.4018 112.692 24.1881 112.948 23.9745C113.162 23.8035 113.418 23.6326 113.718 23.4617C114.017 23.3334 114.316 23.2052 114.615 23.1198C114.914 23.0343 115.256 22.9916 115.555 23.0343C116.111 23.0343 116.624 23.1198 117.008 23.248C117.436 23.3762 117.777 23.5471 118.034 23.8463C118.29 24.1027 118.504 24.4446 118.632 24.9146C118.76 25.342 118.803 25.8976 118.803 26.4958V30.4702C118.803 30.6839 118.803 30.8976 118.846 31.1112C118.889 31.3249 118.931 31.4958 118.974 31.7095H116.965ZM120.641 31.7095V23.2052H122.478V24.6582H122.521C122.777 24.1454 123.077 23.7608 123.461 23.5044C123.803 23.248 124.316 23.077 124.914 23.077V25.2138C124.871 25.2138 124.786 25.2138 124.743 25.2138C124.701 25.2138 124.615 25.2138 124.53 25.2138C124.273 25.2138 124.059 25.2565 123.803 25.3847C123.589 25.5129 123.376 25.6411 123.205 25.8121C123.034 25.983 122.906 26.1112 122.777 26.2822C122.692 26.4104 122.606 26.5386 122.606 26.5813V31.7095H120.641Z" fill="#1B1918"/>
</svg>
